<?xml version="1.0" encoding="UTF-8" standalone="no"?>
<svg
   xmlns:dc="http://purl.org/dc/elements/1.1/"
   xmlns:cc="http://creativecommons.org/ns#"
   xmlns:rdf="http://www.w3.org/1999/02/22-rdf-syntax-ns#"
   xmlns:svg="http://www.w3.org/2000/svg"
   xmlns="http://www.w3.org/2000/svg"
   xmlns:sodipodi="http://sodipodi.sourceforge.net/DTD/sodipodi-0.dtd"
   xmlns:inkscape="http://www.inkscape.org/namespaces/inkscape"
   id="Layer_2"
   data-name="Layer 2"
   viewBox="0 0 222 222"
   version="1.1"
   sodipodi:docname="asking.svg"
   inkscape:version="1.0.2-2 (e86c870879, 2021-01-15)">
  <metadata
     id="metadata47">
    <rdf:RDF>
      <cc:Work
         rdf:about="">
        <dc:format>image/svg+xml</dc:format>
        <dc:type
           rdf:resource="http://purl.org/dc/dcmitype/StillImage" />
        <dc:title></dc:title>
      </cc:Work>
    </rdf:RDF>
  </metadata>
  <sodipodi:namedview
     pagecolor="#ffffff"
     bordercolor="#666666"
     borderopacity="1"
     objecttolerance="10"
     gridtolerance="10"
     guidetolerance="10"
     inkscape:pageopacity="0"
     inkscape:pageshadow="2"
     inkscape:window-width="3200"
     inkscape:window-height="1722"
     id="namedview45"
     showgrid="false"
     inkscape:zoom="4.5405405"
     inkscape:cx="111"
     inkscape:cy="111"
     inkscape:window-x="-8"
     inkscape:window-y="-8"
     inkscape:window-maximized="1"
     inkscape:current-layer="Layer_2" />
  <defs
     id="defs4">
    <style
       id="style2">.cls-1{fill:#005da9;}.cls-2{fill:none;stroke:#b0c4de;stroke-miterlimit:10;stroke-width:2px;}</style>
  </defs>
  <circle
     class="cls-1"
     cx="110.99"
     cy="111.14"
     r="109.59"
     id="circle6" />
  <path
     style="fill:#b0c4de;stroke-width:0.220238"
     d="m 64.609214,181.79496 c -0.44535,-0.44535 -0.445523,-0.47298 -0.445523,-70.9362 0,-48.169835 0.07219,-70.625563 0.227987,-70.916669 0.223951,-0.418456 0.854121,-0.425997 35.599092,-0.425997 h 35.37111 l 1.8083,1.816964 c 0.99457,0.999331 6.13435,6.187087 11.42174,11.528337 l 9.61344,9.71138 v 59.372605 c 0,53.68143 -0.0332,59.40576 -0.34609,59.71868 -0.37441,0.3744 -0.7343,0.43294 -1.09153,0.17754 -0.12448,-0.089 -2.14362,-2.37596 -4.48698,-5.08215 -3.45571,-3.99074 -4.31115,-4.86453 -4.5279,-4.625 -0.14697,0.16244 -2.1261,2.45092 -4.39805,5.08552 -3.07527,3.56614 -4.25599,4.79018 -4.62067,4.79018 -0.36543,0 -1.59994,-1.28662 -4.86032,-5.06548 -2.40375,-2.78601 -4.39832,-5.06548 -4.43237,-5.06548 -0.034,0 -1.88954,2.11218 -4.12332,4.69372 -4.65107,5.37516 -4.70911,5.43724 -5.08405,5.43724 -0.1535,0 -2.24581,-2.27947 -4.64956,-5.06548 -2.40376,-2.78601 -4.39631,-5.06548 -4.4279,-5.06548 -0.0316,0 -1.96435,2.20514 -4.29503,4.9003 -2.33069,2.69517 -4.34318,4.97311 -4.47222,5.06211 -0.6318,0.43574 -1.2292,-0.10636 -5.33574,-4.84187 -2.389703,-2.75573 -4.417519,-5.01042 -4.50625,-5.01042 -0.08873,0 -1.958827,2.08125 -4.155761,4.625 -4.422433,5.12057 -4.726642,5.42819 -5.191635,5.24975 -0.177724,-0.0682 -2.223012,-2.31791 -4.545084,-4.99937 -2.322072,-2.68146 -4.29596,-4.87538 -4.386419,-4.87538 -0.206453,0 -8.342885,9.37277 -8.342885,9.61059 0,0.096 -0.195943,0.27938 -0.435429,0.40754 -0.345843,0.18509 -0.527091,0.14138 -0.880953,-0.21248 z m 41.752716,-6.99761 c 2.85008,-3.28862 4.50956,-5.03341 4.82908,-5.07734 0.39313,-0.054 1.30459,0.87837 4.73631,4.84524 2.33722,2.70169 4.36842,4.91216 4.51378,4.91216 0.14535,0 2.17498,-2.21034 4.51029,-4.91187 3.44254,-3.98239 4.33883,-4.89925 4.73652,-4.84523 0.32524,0.0442 1.95054,1.75473 4.82401,5.07704 2.38343,2.75573 4.36899,5.01042 4.41235,5.01042 0.0434,0 2.03383,-2.25469 4.42326,-5.01042 2.83207,-3.26623 4.51258,-5.03338 4.82751,-5.07639 0.38688,-0.0528 1.24331,0.81346 4.30017,4.3497 2.09939,2.42862 3.85109,4.41568 3.89266,4.41568 0.0416,0 0.0756,-25.81741 0.0756,-57.37203 V 63.742285 h -10.88606 c -9.60276,0 -10.92685,-0.0408 -11.23214,-0.34609 -0.3053,-0.30529 -0.3461,-1.62938 -0.3461,-11.23214 V 41.277999 H 99.95238 65.925596 v 68.622521 c 0,37.74239 0.08281,68.58949 0.184025,68.54911 0.101214,-0.0404 1.503999,-1.60957 3.117301,-3.4871 3.772585,-4.39046 4.635227,-5.28572 5.093182,-5.28572 0.214461,0 2.19291,2.10983 4.634204,4.94193 2.342988,2.71806 4.359085,4.94692 4.480216,4.95302 0.121131,0.006 2.14477,-2.22274 4.496976,-4.95297 3.445444,-3.99917 4.370902,-4.95122 4.761175,-4.89796 0.316696,0.0432 1.988726,1.801 4.828845,5.07652 2.38944,2.75573 4.37901,5.01042 4.42128,5.01042 0.0423,0 2.03088,-2.25469 4.41913,-5.01042 z m 48.7601,-112.981215 c 0,-0.21595 -18.99889,-19.216708 -19.21483,-19.216708 -0.0914,0 -0.16613,4.360718 -0.16613,9.690478 v 9.69047 h 9.69048 c 5.32976,0 9.69048,-0.0739 9.69048,-0.16424 z"
     id="path860" />
  <path
     style="fill:#b0c4de;stroke-width:0.220238"
     d="m 74.074405,77.837525 v -0.88096 h 16.297619 16.297626 v 0.88096 0.88095 H 90.372024 74.074405 Z"
     id="path864" />
  <path
     style="fill:#b0c4de;stroke-width:0.220238"
     d="m 74.074405,91.051805 v -0.88095 h 8.699405 8.699405 v 0.88095 0.88096 H 82.77381 74.074405 Z"
     id="path866" />
  <path
     style="fill:#b0c4de;stroke-width:0.220238"
     d="m 74.074405,104.92681 v -0.88095 h 16.297619 16.297626 v 0.88095 0.88096 H 90.372024 74.074405 Z"
     id="path868" />
  <path
     style="fill:#b0c4de;stroke-width:0.220238"
     d="m 74.074405,118.36134 v -0.88096 h 8.699405 8.699405 v 0.88096 0.88095 H 82.77381 74.074405 Z"
     id="path870" />
  <path
     style="fill:#b0c4de;stroke-width:0.220238"
     d="m 74.074405,132.67681 v -0.88095 h 8.699405 8.699405 v 0.88095 0.88096 H 82.77381 74.074405 Z"
     id="path872" />
  <path
     style="fill:#b0c4de;stroke-width:0.220238"
     d="m 74.074405,154.92086 v -0.88095 h 28.741075 28.74107 v 0.88095 0.88095 H 102.81548 74.074405 Z"
     id="path876" />
  <path
     style="fill:#b0c4de;stroke-width:0.220238"
     d="m 121.4256,132.67681 v -0.88095 h 5.06547 5.06548 v 0.88095 0.88096 h -5.06548 -5.06547 z"
     id="path878" />
  <path
     style="fill:#b0c4de;stroke-width:0.220238"
     d="m 121.4256,118.36134 v -0.88096 h 5.06547 5.06548 v 0.88096 0.88095 h -5.06548 -5.06547 z"
     id="path880" />
  <path
     style="fill:#b0c4de;stroke-width:0.220238"
     d="m 121.4256,104.92681 v -0.88095 h 5.06547 5.06548 v 0.88095 0.88096 h -5.06548 -5.06547 z"
     id="path882" />
  <path
     style="fill:#b0c4de;stroke-width:0.220238"
     d="m 121.4256,77.837525 v -0.88096 h 5.06547 5.06548 v 0.88096 0.88095 h -5.06548 -5.06547 z"
     id="path886" />
  <path
     style="fill:#b0c4de;stroke-width:0.220238"
     d="m 121.4256,91.051805 v -0.88095 h 5.06547 5.06548 v 0.88095 0.88096 h -5.06548 -5.06547 z"
     id="path888" />
</svg>
