<?xml version="1.0" encoding="UTF-8" standalone="no"?>
<svg
   xmlns:dc="http://purl.org/dc/elements/1.1/"
   xmlns:cc="http://creativecommons.org/ns#"
   xmlns:rdf="http://www.w3.org/1999/02/22-rdf-syntax-ns#"
   xmlns:svg="http://www.w3.org/2000/svg"
   xmlns="http://www.w3.org/2000/svg"
   xmlns:sodipodi="http://sodipodi.sourceforge.net/DTD/sodipodi-0.dtd"
   xmlns:inkscape="http://www.inkscape.org/namespaces/inkscape"
   id="Layer_2"
   data-name="Layer 2"
   viewBox="0 0 222 222"
   version="1.1"
   sodipodi:docname="info.svg"
   inkscape:version="1.0.2-2 (e86c870879, 2021-01-15)">
  <metadata
     id="metadata47">
    <rdf:RDF>
      <cc:Work
         rdf:about="">
        <dc:format>image/svg+xml</dc:format>
        <dc:type
           rdf:resource="http://purl.org/dc/dcmitype/StillImage" />
        <dc:title></dc:title>
      </cc:Work>
    </rdf:RDF>
  </metadata>
  <sodipodi:namedview
     pagecolor="#ffffff"
     bordercolor="#666666"
     borderopacity="1"
     objecttolerance="10"
     gridtolerance="10"
     guidetolerance="10"
     inkscape:pageopacity="0"
     inkscape:pageshadow="2"
     inkscape:window-width="3200"
     inkscape:window-height="1722"
     id="namedview45"
     showgrid="false"
     inkscape:zoom="4.5405405"
     inkscape:cx="111"
     inkscape:cy="111"
     inkscape:window-x="-8"
     inkscape:window-y="-8"
     inkscape:window-maximized="1"
     inkscape:current-layer="Layer_2" />
  <defs
     id="defs4">
    <style
       id="style2">.cls-1{fill:#005da9;}.cls-2{fill:none;stroke:#b0c4de;stroke-miterlimit:10;stroke-width:2px;}</style>
  </defs>
  <circle
     class="cls-1"
     cx="110.99"
     cy="111.14"
     r="109.59"
     id="circle6" />
  <path
     style="fill:#b0c4de;stroke-width:0.220238"
     d="m 162.42571,202.66755 -3.13589,-3.14151 2.64321,-2.63631 c 1.45376,-1.44997 2.6432,-2.7379 2.6432,-2.86206 0,-0.12416 -1.95737,-2.17967 -4.34971,-4.5678 l -4.3497,-4.34206 -2.97321,1.76962 c -10.49551,6.24677 -21.8473,10.04779 -34.90774,11.68847 -2.94098,0.36945 -14.91407,0.36812 -17.83929,-0.002 -4.08643,-0.51702 -7.46899,-1.14475 -11.48437,-2.13124 -28.514782,-7.00545 -51.440035,-28.19691 -60.7488,-56.15448 -1.72494,-5.18062 -3.193379,-11.97008 -3.905955,-18.05953 -0.439653,-3.75714 -0.364441,-14.67083 0.127494,-18.5 C 26.333968,86.68953 32.705233,71.73304 43.11274,59.20191 45.678306,56.11285 51.458111,50.33622 54.677417,47.64358 66.156769,38.042213 80.27463,31.618455 95.48586,29.075358 c 4.53938,-0.758917 7.72752,-0.991515 13.59037,-0.991515 5.88226,0 9.0496,0.232439 13.65476,1.002071 23.53626,3.933475 43.88542,16.963656 57.23872,36.651666 7.44929,10.98318 12.06347,23.25179 14.03981,37.33036 0.57393,4.0884 0.57974,17.04518 0.009,20.92262 -1.93894,13.18144 -6.10199,24.72568 -12.73559,35.31609 -0.70974,1.13308 -1.29043,2.20435 -1.29043,2.38061 0,0.17626 1.8782,2.22242 4.17378,4.54701 l 4.17378,4.22652 2.76409,-2.75003 2.76408,-2.75003 3.52345,3.51828 c 1.93789,1.93506 3.52344,3.62439 3.52344,3.75407 0,0.12968 -0.14358,0.42817 -0.31906,0.6633 -0.3021,0.40476 -0.48964,0.25769 -3.52496,-2.76424 l -3.20589,-3.19174 -16.18635,16.18523 c -8.9025,8.90188 -16.18636,16.28316 -16.18636,16.40285 0,0.11969 1.21406,1.43829 2.69792,2.93021 2.55749,2.5714 2.67566,2.72919 2.2704,3.03145 -0.23513,0.17538 -0.53373,0.31887 -0.66356,0.31887 -0.12983,0 -1.6472,-1.41367 -3.37194,-3.14149 z m -45.86139,-5.66749 c 9.21565,-0.58886 19.7468,-3.46332 28.96131,-7.90492 11.62104,-5.6016 21.30398,-13.34435 29.55068,-23.62956 1.82742,-2.27916 5.62884,-7.92356 7.167,-10.64167 5.28545,-9.34008 8.68851,-19.67468 10.22556,-31.05357 0.4844,-3.58602 0.55371,-15.5968 0.11185,-19.38095 C 188.58246,70.14796 164.86955,42.19318 131.98099,32.9493 115.62609,28.352482 97.44749,28.900776 81.61495,34.468415 54.996414,43.82904 34.873225,65.81988 28.054643,92.9997 c -1.990178,7.93313 -2.561604,13.30838 -2.381441,22.40159 0.17639,8.90282 0.902382,13.88774 3.156672,21.67485 6.308385,21.79138 20.987388,39.76467 41.374329,50.65964 8.572667,4.58131 18.404187,7.67676 28.733237,9.04664 3.47734,0.46119 12.14125,0.56816 17.62688,0.21764 z m 60.09508,-14.86471 10.71147,-10.67964 -4.1191,-4.09813 c -2.26551,-2.25396 -4.24765,-4.05684 -4.40477,-4.00638 -0.15711,0.0505 -1.11099,1.12566 -2.11973,2.38936 -5.27589,6.60938 -10.47754,11.63381 -18.05385,17.43878 -0.75078,0.57524 -1.36505,1.15742 -1.36505,1.29373 0,0.35876 7.98156,8.34382 8.33912,8.34279 0.16524,-4.5e-4 5.1206,-4.80671 11.01191,-10.68051 z"
     id="path850" />
  <path
     style="fill:#b0c4de;stroke-width:0.220238"
     d="m 180.87384,111.2401 c 0,-1.25904 -0.10159,-3.31551 -0.22575,-4.56994 -2.78325,-28.11808 -21.70299,-51.9455 -48.44686,-61.01368 -6.53258,-2.21504 -14.89842,-3.70459 -20.80624,-3.70459 h -2.09853 v -0.88095 -0.88095 h 2.20865 c 1.21475,0 3.65407,0.15179 5.4207,0.33731 27.17472,2.85375 50.59763,20.69482 60.71087,46.24304 3.07525,7.76875 4.59434,15.10754 5.0945,24.61161 l 0.11301,2.14732 h -0.98517 -0.98518 z"
     id="path852" />
  <path
     style="fill:#b0c4de;stroke-width:0.220238"
     d="m 69.159082,137.48016 -0.05607,-23.18006 -2.918154,-0.0614 -2.918155,-0.0615 v -4.56849 -4.56847 L 85.93765,83.57196 C 98.40668,71.7644 108.8095,62.07245 109.05504,62.03429 c 0.32928,-0.0512 2.38544,1.76938 7.83528,6.9375 4.06387,3.85378 7.48649,7.03991 7.60583,7.08029 0.13671,0.0463 0.21698,-1.27769 0.21698,-3.57887 v -3.65228 h 6.60714 6.60715 l 0.008,10.07589 0.008,10.07589 8.47109,8.00533 8.4711,8.00532 v 4.60331 4.6033 h -2.86309 -2.8631 v 23.23512 23.23512 h -39.9722 -39.972206 l -0.05607,-23.18006 z m 10.845718,9.5253 V 135.1126 h -1.54167 -1.54167 v -0.88095 -0.88095 h 11.67262 11.67262 v 0.88095 0.88095 h -1.65178 -1.65179 v 11.89287 11.89285 h 25.21726 25.21726 V 136.54415 114.18998 H 109.18634 70.975036 v 22.35418 22.35416 h 4.514884 4.51488 z m 15.19643,0 V 135.1126 H 88.48396 81.7667 v 11.89287 11.89285 h 6.71726 6.71727 z m 57.92261,-37.94469 v -3.3673 L 135.35097,88.85393 C 125.57588,79.59218 115.66911,70.20049 113.33592,67.98349 l -4.24216,-4.0309 -13.05787,12.38397 C 88.85406,83.14774 78.9403,92.54334 74.00532,97.21567 l -8.9727,8.49514 -0.002,3.35864 -0.002,3.35863 h 44.04761 44.04761 z m -16.95833,-30.219 v -8.03869 h -4.84524 -4.84523 v 3.61088 3.61088 l 4.65519,4.42781 c 2.56036,2.4353 4.74072,4.42781 4.84524,4.42781 0.10452,0 0.19004,-3.61741 0.19004,-8.03869 z"
     id="path854" />
  <path
     style="fill:#b0c4de;stroke-width:0.220238"
     d="m 122.07027,65.07689 v -0.88095 h 9.36012 9.36012 v 0.88095 0.88095 h -9.36012 -9.36012 z"
     id="path856" />
  <path
     style="fill:#b0c4de;stroke-width:0.220238"
     d="m 70.314322,105.6007 v -0.88096 h 29.181548 29.18155 v 0.88096 0.88095 H 99.49587 70.314322 Z"
     id="path858" />
  <path
     style="fill:#b0c4de;stroke-width:0.220238"
     d="m 120.96908,142.49058 v -8.47917 h 9.02976 9.02977 v 8.47917 8.47917 h -9.02977 -9.02976 z m 8.14881,3.63392 v -2.86309 h -3.19345 -3.19345 v 2.86309 2.8631 h 3.19345 3.19345 z m 7.92857,0 v -2.86309 h -3.08333 -3.08333 v 2.86309 2.8631 h 3.08333 3.08333 z m -7.92857,-7.48809 v -2.8631 h -3.19345 -3.19345 v 2.8631 2.86309 h 3.19345 3.19345 z m 7.92857,0 v -2.8631 h -3.08333 -3.08333 v 2.8631 2.86309 h 3.08333 3.08333 z"
     id="path860" />
</svg>
