<?xml version="1.0" encoding="UTF-8" standalone="no"?>
<svg
   xmlns:dc="http://purl.org/dc/elements/1.1/"
   xmlns:cc="http://creativecommons.org/ns#"
   xmlns:rdf="http://www.w3.org/1999/02/22-rdf-syntax-ns#"
   xmlns:svg="http://www.w3.org/2000/svg"
   xmlns="http://www.w3.org/2000/svg"
   xmlns:sodipodi="http://sodipodi.sourceforge.net/DTD/sodipodi-0.dtd"
   xmlns:inkscape="http://www.inkscape.org/namespaces/inkscape"
   id="Layer_2"
   data-name="Layer 2"
   viewBox="0 0 222 222"
   version="1.1"
   sodipodi:docname="rent.svg"
   inkscape:version="1.0.2-2 (e86c870879, 2021-01-15)">
  <metadata
     id="metadata47">
    <rdf:RDF>
      <cc:Work
         rdf:about="">
        <dc:format>image/svg+xml</dc:format>
        <dc:type
           rdf:resource="http://purl.org/dc/dcmitype/StillImage" />
        <dc:title></dc:title>
      </cc:Work>
    </rdf:RDF>
  </metadata>
  <sodipodi:namedview
     pagecolor="#ffffff"
     bordercolor="#666666"
     borderopacity="1"
     objecttolerance="10"
     gridtolerance="10"
     guidetolerance="10"
     inkscape:pageopacity="0"
     inkscape:pageshadow="2"
     inkscape:window-width="3200"
     inkscape:window-height="1722"
     id="namedview45"
     showgrid="false"
     inkscape:zoom="4.5405405"
     inkscape:cx="111"
     inkscape:cy="111"
     inkscape:window-x="-8"
     inkscape:window-y="-8"
     inkscape:window-maximized="1"
     inkscape:current-layer="Layer_2" />
  <defs
     id="defs4">
    <style
       id="style2">.cls-1{fill:#005da9;}.cls-2{fill:none;stroke:#b0c4de;stroke-miterlimit:10;stroke-width:2px;}</style>
  </defs>
  <circle
     class="cls-1"
     cx="110.99"
     cy="111.14"
     r="109.59"
     id="circle6" />
  <path
     style="fill:#b0c4de;stroke-width:0.220238"
     d="m 158.10954,158.60203 -0.46443,-0.58063 2.14933,-2.36667 c 16.90672,-18.6163 21.86512,-44.53796 13.05362,-68.242203 -0.8037,-2.16208 -3.74057,-8.39426 -4.28747,-9.09823 -0.27801,-0.35785 -0.38829,-0.10271 -1.07333,2.48319 l -0.76348,2.88202 -0.66121,-0.13883 c -0.36367,-0.0764 -0.74313,-0.21527 -0.84324,-0.30868 -0.17429,-0.16261 1.95046,-8.33278 2.24284,-8.6243 0.1237,-0.12333 8.56886,2.07709 8.71122,2.26974 0.03,0.0406 -0.0524,0.42941 -0.18316,0.86406 l -0.23769,0.79029 -2.64285,-0.7326 c -1.45358,-0.40293 -2.76741,-0.73378 -2.91963,-0.73523 -0.16106,-0.001 0.36415,1.27677 1.2563,3.05768 2.76773,5.52492 4.25301,9.56619 5.63403,15.32958 2.64466,11.036913 2.41823,22.424653 -0.66989,33.690553 -2.24859,8.20319 -6.58736,16.79667 -11.92989,23.62868 -1.86125,2.38015 -5.50805,6.44931 -5.75899,6.42596 -0.0812,-0.008 -0.35664,-0.27503 -0.61208,-0.59438 z"
     id="path856" />
  <path
     style="fill:#b0c4de;stroke-width:0.220238"
     d="m 57.154325,159.54051 v -0.99108 h 3.001732 3.001733 l -1.249167,-1.37648 c -2.327392,-2.56461 -4.655915,-5.40663 -6.215909,-7.58666 -13.507466,-18.87616 -16.372592,-43.59185 -7.543747,-65.075263 1.086759,-2.64444 3.173376,-6.91963 3.786651,-7.75833 0.295281,-0.40383 0.326823,-0.40453 0.974671,-0.0218 l 0.669515,0.39549 -1.503994,2.99576 c -4.635461,9.23326 -6.857566,17.958583 -7.185104,28.213043 -0.55503,17.37671 5.900137,34.51529 17.751655,47.13095 l 1.758632,1.87202 0.01059,-3.02827 0.01059,-3.02827 h 0.991071 0.991072 v 4.625 4.625 h -4.625 -4.625 z"
     id="path858" />
  <path
     style="fill:#b0c4de;stroke-width:0.220238"
     d="m 106.37754,196.28907 c -8.852694,-1.00912 -14.265365,-2.7594 -17.403897,-5.62784 -2.246094,-2.05281 -2.087176,-0.57444 -2.087176,-19.41629 0,-18.85898 -0.189574,-17.16289 2.161638,-19.3397 2.84534,-2.63428 8.796987,-4.66455 16.008005,-5.46076 2.82159,-0.31154 10.14502,-0.31354 12.99405,-0.004 10.04949,1.09349 17.13257,4.44951 18.16811,8.60821 0.16635,0.66805 0.22092,5.87587 0.17629,16.82468 -0.0646,15.83922 -0.0652,15.85816 -0.54744,16.75941 -1.98058,3.70138 -8.99872,6.59758 -18.34755,7.57153 -1.92859,0.20092 -9.58955,0.25898 -11.12203,0.0843 z m 12.05798,-1.94874 c 7.71951,-0.903 13.53332,-3.14393 15.5819,-6.00604 0.51971,-0.72609 0.55501,-0.9592 0.62919,-4.1551 0.0432,-1.86222 0.0211,-3.53581 -0.0493,-3.7191 -0.10203,-0.26588 -0.34047,-0.16971 -1.17978,0.47585 -2.35351,1.81023 -7.16148,3.57888 -11.84358,4.35677 -12.07232,2.0057 -26.051537,0.0901 -31.895609,-4.37082 l -1.029989,-0.78621 v 3.64341 c 0,4.06748 0.07816,4.36603 1.47235,5.62402 1.133998,1.02322 2.132162,1.61741 4.062058,2.4181 2.90817,1.20656 8.15249,2.3472 12.415,2.70026 2.60252,0.21556 9.32595,0.11268 11.83774,-0.18114 z m 1.47181,-10.56661 c 6.82531,-0.99155 12.42217,-3.27998 14.11009,-5.76932 0.52378,-0.77246 0.55436,-0.99249 0.62787,-4.51742 0.0425,-2.03797 0.0186,-3.7054 -0.0532,-3.7054 -0.0717,0 -0.59477,0.35445 -1.16231,0.78766 -2.83076,2.16076 -7.87394,3.84148 -14.27847,4.75851 -2.66634,0.38177 -12.34098,0.38096 -15.08631,-0.001 -6.429095,-0.89506 -12.163607,-2.84673 -14.743765,-5.01779 l -0.672903,-0.56621 v 3.66445 c 0,4.09401 0.07608,4.38456 1.480351,5.65323 2.804253,2.53347 8.866476,4.40478 16.579177,5.1177 2.25983,0.20889 10.77429,-0.0518 13.19943,-0.40408 z m -0.75598,-10.25208 c 4.71525,-0.63718 9.75887,-2.11266 12.12632,-3.54749 1.68082,-1.01868 2.95146,-2.37679 3.19141,-3.4111 0.22466,-0.96844 0.28298,-6.54485 0.0707,-6.75717 -0.0761,-0.0761 -0.5553,0.20322 -1.06486,0.62076 -0.50955,0.41754 -1.85954,1.20048 -2.99999,1.73986 -4.83066,2.2847 -11.15081,3.43055 -18.92175,3.43055 -9.47654,0 -17.639673,-1.92458 -21.874779,-5.15731 l -1.029989,-0.78621 v 3.5333 c 0,4.01383 0.07708,4.28167 1.623971,5.6433 2.416553,2.12714 8.02619,4.00073 14.012937,4.68026 1.15075,0.13061 2.43914,0.27766 2.8631,0.32676 1.38349,0.16025 10.19663,-0.0714 12.00297,-0.31551 z m 0.99107,-10.23016 c 10.52321,-1.6411 16.28245,-5.48919 13.76348,-9.19619 -1.58685,-2.33525 -6.78654,-4.47036 -13.65336,-5.60638 -3.48985,-0.57734 -13.90895,-0.57734 -17.39881,0 -6.958236,1.15114 -12.289696,3.37898 -13.753222,5.74702 -2.532567,4.09777 4.93887,8.18973 17.277032,9.46228 2.11935,0.21859 11.54016,-0.0598 13.76488,-0.40673 z"
     id="path860" />
  <path
     style="fill:#b0c4de;stroke-width:0.220238"
     d="m 71.928164,99.05605 -0.05607,-23.180058 -2.918154,-0.0614 -2.918155,-0.0615 v -4.56849 -4.56847 l 22.670947,-21.46828 c 12.469028,-11.80756 22.871848,-21.49951 23.117388,-21.53767 0.32928,-0.0512 2.38544,1.76938 7.83528,6.9375 4.06387,3.85378 7.48649,7.03991 7.60583,7.08029 0.13671,0.0463 0.21698,-1.27769 0.21698,-3.57887 v -3.65228 h 6.60714 6.60715 l 0.008,10.07589 0.008,10.07589 8.47109,8.00533 8.4711,8.00532 v 4.60331 4.6033 h -2.86309 -2.8631 V 99.00098 122.2361 H 111.9563 71.984096 l -0.05607,-23.18006 z m 10.845718,9.5253 V 96.68849 h -1.54167 -1.54167 v -0.88095 -0.88095 h 11.67262 11.672618 v 0.88095 0.88095 H 101.384 99.73221 v 11.89287 11.89285 h 25.21726 25.21726 V 98.12004 75.765872 H 111.95542 73.744118 v 22.354178 22.35416 h 4.514884 4.51488 z m 15.196428,0 V 96.68849 h -6.717268 -6.71726 v 11.89287 11.89285 h 6.71726 6.717268 z m 57.92261,-37.944688 v -3.3673 l -17.77287,-16.83954 c -9.77509,-9.26175 -19.68186,-18.65344 -22.01505,-20.87044 l -4.24216,-4.0309 -13.05787,12.38397 c -7.181828,6.81118 -17.095588,16.20678 -22.030568,20.87911 l -8.9727,8.49514 -0.002,3.35864 -0.002,3.35863 h 44.047608 44.04761 z m -16.95833,-30.219 v -8.03869 h -4.84524 -4.84523 v 3.61088 3.61088 l 4.65519,4.42781 c 2.56036,2.4353 4.74072,4.42781 4.84524,4.42781 0.10452,0 0.19004,-3.61741 0.19004,-8.03869 z"
     id="path854" />
  <path
     style="fill:#b0c4de;stroke-width:0.220238"
     d="m 124.83935,26.652782 v -0.88095 h 9.36012 9.36012 v 0.88095 0.88095 h -9.36012 -9.36012 z"
     id="path856-5" />
  <path
     style="fill:#b0c4de;stroke-width:0.220238"
     d="m 73.083404,67.176592 v -0.88096 h 29.181546 29.18155 v 0.88096 0.88095 H 102.26495 73.083404 Z"
     id="path858-6" />
  <path
     style="fill:#b0c4de;stroke-width:0.220238"
     d="m 124.43452,104.19048 v -8.479174 h 9.02976 9.02977 v 8.479174 8.47917 h -9.02977 -9.02976 z m 8.14881,3.63392 v -2.86309 h -3.19345 -3.19345 v 2.86309 2.8631 h 3.19345 3.19345 z m 7.92857,0 v -2.86309 h -3.08333 -3.08333 v 2.86309 2.8631 h 3.08333 3.08333 z m -7.92857,-7.48809 v -2.863104 h -3.19345 -3.19345 v 2.863104 2.86309 h 3.19345 3.19345 z m 7.92857,0 v -2.863104 h -3.08333 -3.08333 v 2.863104 2.86309 h 3.08333 3.08333 z"
     id="path860-9" />
</svg>
