<svg width="20" height="27" xmlns="http://www.w3.org/2000/svg" xmlns:xlink="http://www.w3.org/1999/xlink" xml:space="preserve" overflow="hidden"><defs><clipPath id="clip0"><rect x="0" y="0" width="20" height="27"/></clipPath></defs><g clip-path="url(#clip0)"><path d="M6.5643 21.418C10.257 25.1079 13.7915 25.4417 15.7962 25.1079 17.1326 24.9322 18.3108 24.0888 18.8207 22.9291 19.6648 21.418 18.6449 20.5746 18.6449 20.5746L15.2862 18.2377C14.1256 17.3943 12.9475 19.5731 12.9475 19.5731 11.6111 21.2423 9.92294 19.2392 9.43057 18.5715 6.23019 14.5478 5.22787 11.6838 5.06961 11.0161 5.06961 11.0161 5.06961 10.8579 5.06961 10.8579 4.71792 10.0145 4.04971 7.67762 6.07193 7.3262 6.07193 7.3262 8.41067 7.3262 8.25241 5.99082L7.9183 1.80895C7.9183 1.80895 7.74246 0.631706 6.07193 0.455997 4.55966 0.29786 3.04739 0.965552 2.20333 2.1428 0.866909 3.81203-0.311255 7.16806 1.20101 11.8595 1.37686 12.0352 3.22324 18.062 6.5643 21.418Z" stroke="#005CA9" stroke-width="0.84186" stroke-linecap="round" stroke-linejoin="round" fill="none" transform="scale(1 1.03661)"/></g></svg>