<?xml version="1.0" encoding="UTF-8" standalone="no"?>
<svg
   xmlns:dc="http://purl.org/dc/elements/1.1/"
   xmlns:cc="http://creativecommons.org/ns#"
   xmlns:rdf="http://www.w3.org/1999/02/22-rdf-syntax-ns#"
   xmlns:svg="http://www.w3.org/2000/svg"
   xmlns="http://www.w3.org/2000/svg"
   xmlns:sodipodi="http://sodipodi.sourceforge.net/DTD/sodipodi-0.dtd"
   xmlns:inkscape="http://www.inkscape.org/namespaces/inkscape"
   id="Layer_2"
   data-name="Layer 2"
   viewBox="0 0 222 222"
   version="1.1"
   sodipodi:docname="transaction.svg"
   inkscape:version="1.0.2-2 (e86c870879, 2021-01-15)">
  <metadata
     id="metadata47">
    <rdf:RDF>
      <cc:Work
         rdf:about="">
        <dc:format>image/svg+xml</dc:format>
        <dc:type
           rdf:resource="http://purl.org/dc/dcmitype/StillImage" />
        <dc:title></dc:title>
      </cc:Work>
    </rdf:RDF>
  </metadata>
  <sodipodi:namedview
     pagecolor="#ffffff"
     bordercolor="#666666"
     borderopacity="1"
     objecttolerance="10"
     gridtolerance="10"
     guidetolerance="10"
     inkscape:pageopacity="0"
     inkscape:pageshadow="2"
     inkscape:window-width="3200"
     inkscape:window-height="1722"
     id="namedview45"
     showgrid="false"
     inkscape:zoom="4.5405405"
     inkscape:cx="111"
     inkscape:cy="111"
     inkscape:window-x="-8"
     inkscape:window-y="-8"
     inkscape:window-maximized="1"
     inkscape:current-layer="Layer_2" />
  <defs
     id="defs4">
    <style
       id="style2">.cls-1{fill:#005da9;}.cls-2{fill:none;stroke:#b0c4de;stroke-miterlimit:10;stroke-width:2px;}</style>
  </defs>
  <circle
     class="cls-1"
     cx="110.99"
     cy="111.14"
     r="109.59"
     id="circle6" />
  <path
     style="fill:#b0c4de;stroke-width:0.220238"
     d="m 53.786488,126.28681 0.0088,-45.09375 11.666136,-15.74702 c 6.416375,-8.660863 11.772671,-15.747024 11.902878,-15.747024 0.130209,0 5.478733,7.086161 11.885609,15.747024 l 11.648869,15.74702 0.005,45.09375 0.005,45.09375 H 77.343196 53.77772 Z M 99.14677,125.68457 V 81.75048 L 88.315775,67.095994 C 82.358729,59.036024 77.408657,52.46864 77.315616,52.501807 c -0.09304,0.03317 -5.030704,6.633598 -10.972581,14.667624 L 55.539625,81.77675 v 43.92095 43.92096 H 77.343196 99.14677 Z"
     id="path852" />
  <path
     style="fill:#b0c4de;stroke-width:0.220238"
     d="m 75.196023,86.2486 c -2.353795,-0.63382 -4.251394,-2.01514 -5.531112,-4.02626 -1.606514,-2.524693 -1.801153,-6.005954 -0.485097,-8.676275 0.917481,-1.861597 2.594979,-3.480195 4.582635,-4.421729 1.35993,-0.644186 1.669187,-0.703949 3.580747,-0.691964 1.653285,0.01037 2.346407,0.118196 3.303571,0.513945 1.721264,0.711672 3.199916,1.911408 4.203119,3.410293 1.204653,1.799871 1.595421,3.282488 1.4816,5.621357 -0.114411,2.350973 -0.778327,3.922373 -2.366846,5.602003 -2.349854,2.48462 -5.683847,3.49928 -8.768617,2.66863 z m 5.256017,-2.22162 c 1.419264,-0.63692 2.728996,-1.90222 3.537712,-3.41768 0.436858,-0.818626 0.511157,-1.278122 0.511013,-3.160284 -1.52e-4,-1.963104 -0.06394,-2.322019 -0.587114,-3.303571 -0.763013,-1.43152 -2.216517,-2.825672 -3.597241,-3.450351 -1.526859,-0.690795 -4.389197,-0.70549 -5.874998,-0.03016 -1.393389,0.633324 -2.962964,2.125174 -3.652546,3.471671 -0.813312,1.588098 -0.938471,4.15074 -0.287057,5.877545 0.839821,2.22625 2.851008,3.9854 5.243763,4.58663 1.264327,0.31768 3.26294,0.074 4.706468,-0.57379 z"
     id="path854" />
  <path
     style="fill:#b0c4de;stroke-width:0.220238"
     d="m 138.42014,104.20076 c -3.83896,-0.68963 -7.69735,-3.18081 -10.34026,-6.6762 -1.98913,-2.63073 -4.26644,-8.35579 -4.26644,-10.72565 0,-1.31524 0.0105,-1.3112 -3.41384,-1.3112 h -3.14647 l 0.22361,-0.88096 0.22361,-0.88095 h 2.94642 2.94643 v -4.40476 -4.404762 h -3.09818 c -2.993,0 -3.09393,-0.01495 -2.97321,-0.440476 l 0.24992,-0.880952 c 0.11668,-0.411286 0.31344,-0.440476 2.96902,-0.440476 2.77447,0 2.84638,-0.01212 2.93889,-0.495536 0.0522,-0.272545 0.20355,-1.155755 0.33644,-1.96269 1.17349,-7.126181 6.04655,-13.354749 12.16705,-15.551478 1.43804,-0.516134 1.94191,-0.580444 4.58864,-0.585663 2.69689,-0.0053 3.13696,0.05136 4.73512,0.609869 2.04497,0.714654 4.44442,2.15207 5.78125,3.463325 0.89316,0.876074 0.93601,0.978008 0.93601,2.226738 v 1.308637 l -1.26637,-1.371775 c -1.51605,-1.642238 -3.93427,-3.274891 -5.83068,-3.936563 -1.74963,-0.610455 -4.93934,-0.821724 -6.82757,-0.45222 -2.77165,0.54238 -6.13258,2.547552 -8.01815,4.783731 -2.56617,3.043324 -3.98486,6.370381 -4.7962,11.247851 l -0.11906,0.715774 h 10.03016 10.03017 l -0.14243,0.495535 c -0.0783,0.272545 -0.19081,0.668973 -0.24992,0.880953 -0.10031,0.359668 -0.76125,0.385416 -9.89324,0.385416 h -9.78576 v 4.404762 4.40476 h 7.70834 c 8.46254,0 7.93265,-0.0887 7.56952,1.26637 l -0.1328,0.49554 h -7.56702 -7.56702 l 0.12182,0.71577 c 0.60665,3.56435 1.09867,5.25623 2.12963,7.32292 4.87335,9.76927 15.63111,12.09545 22.86863,4.94496 l 1.75861,-1.73747 -0.0654,1.36023 -0.0654,1.36022 -1.45582,1.22055 c -1.67469,1.40406 -4.10952,2.67592 -6.12011,3.19692 -1.72351,0.4466 -4.60158,0.60135 -6.11796,0.32895 z"
     id="path858" />
  <path
     style="fill:#b0c4de;stroke-width:0.220238"
     d="m 141.02914,171.81399 c -8.2298,-0.79631 -15.03497,-3.16537 -17.76139,-6.18319 -1.51266,-1.67433 -1.43646,-0.67488 -1.43646,-18.8403 0,-16.24051 0.006,-16.46781 0.46022,-17.40607 0.62154,-1.28393 2.34452,-2.74334 4.60526,-3.90078 3.17528,-1.62566 6.89336,-2.67641 11.89286,-3.36098 3.36606,-0.4609 11.40824,-0.51979 14.64583,-0.10724 7.48121,0.95329 13.25202,3.03358 16.00643,5.77005 2.05861,2.04522 1.96704,1.10269 1.89491,19.50438 l -0.062,15.83177 -0.5151,1.04595 c -1.67496,3.40117 -7.57558,6.07209 -16.22069,7.3423 -2.69211,0.39555 -10.70151,0.57584 -13.50982,0.30411 z m 12.51644,-1.97574 c 6.39844,-0.7892 11.72275,-2.56629 14.30112,-4.77328 1.47428,-1.26193 1.55602,-1.56112 1.55602,-5.69521 v -3.66362 l -1.04613,0.76306 c -3.00954,2.1952 -7.80233,3.80015 -14.04018,4.70162 -3.6709,0.5305 -11.966,0.5305 -15.6369,0 -6.23785,-0.90147 -11.03064,-2.50642 -14.04018,-4.70162 l -1.04613,-0.76306 v 3.66362 c 0,4.14807 0.0775,4.42709 1.59095,5.72929 2.96105,2.54769 9.48774,4.41122 17.67988,5.04803 1.79111,0.13923 8.65874,-0.0593 10.68155,-0.30883 z m 0.5506,-10.45479 c 7.36978,-0.92788 13.62007,-3.47309 14.99585,-6.10655 0.23115,-0.44245 0.31069,-1.5327 0.31069,-4.25834 v -3.66362 l -1.04613,0.76306 c -3.13992,2.2903 -8.41501,3.99028 -14.92113,4.80856 -2.83881,0.35705 -11.03619,0.35705 -13.875,0 -6.50612,-0.81828 -11.78121,-2.51826 -14.92113,-4.80856 l -1.04613,-0.76306 v 3.66362 c 0,2.85049 0.0744,3.8076 0.33544,4.3123 0.39566,0.76511 2.19822,2.23874 3.61581,2.956 2.79405,1.4137 8.00432,2.77123 12.23625,3.18812 1.33244,0.13126 2.81905,0.27762 3.30357,0.32524 1.6946,0.16655 8.39211,-0.0869 11.01191,-0.41677 z m 0.11011,-10.37411 c 7.36691,-0.94868 13.516,-3.46174 14.88574,-6.08363 0.23002,-0.44029 0.31069,-1.51733 0.31069,-4.14797 v -3.55325 l -0.82589,0.64511 c -8.71546,6.80768 -33.83232,7.09819 -43.40734,0.50207 l -1.57629,-1.08589 v 3.52261 c 0,4.00428 0.0957,4.33724 1.59331,5.54413 3.26054,2.62758 9.23489,4.40768 16.7843,5.00099 3.09166,0.24298 8.95726,0.078 12.23548,-0.34417 z m -3.08333,-9.78338 c 9.03067,-0.77122 16.00814,-3.21514 17.86279,-6.25658 0.49225,-0.80725 0.53956,-2.1201 0.10628,-2.94947 -1.02746,-1.9667 -4.90118,-3.97946 -10.0405,-5.21697 -11.36471,-2.73653 -27.18052,-1.15427 -33.2698,3.3284 -1.55217,1.14264 -2.18657,2.07984 -2.18771,3.23187 -0.002,1.7457 1.34532,3.14038 4.51406,4.67373 5.39225,2.60931 14.7004,3.89908 23.01488,3.18902 z"
     id="path860" />
  <path
     style="fill:#b0c4de;stroke-width:0.220238"
     d="m 64.789625,122.92818 v -0.88095 h 12.553571 12.553571 v 0.88095 0.88095 H 77.343196 64.789625 Z"
     id="path862" />
  <path
     style="fill:#b0c4de;stroke-width:0.220238"
     d="m 64.789625,134.6008 v -0.88095 h 12.553571 12.553571 v 0.88095 0.88095 H 77.343196 64.789625 Z"
     id="path868" />
  <path
     style="fill:#b0c4de;stroke-width:0.220238"
     d="m 64.789625,146.05318 v -0.88095 h 12.553571 12.553571 v 0.88095 0.88095 H 77.343196 64.789625 Z"
     id="path870" />
  <path
     style="fill:#b0c4de;stroke-width:0.220238"
     d="m 64.789625,157.7258 v -0.88095 h 12.553571 12.553571 v 0.88095 0.88095 H 77.343196 64.789625 Z"
     id="path872" />
</svg>
